<svg width="260" height="39" viewBox="0 0 260 39" fill="none" xmlns="http://www.w3.org/2000/svg">
<g clip-path="url(#clip0_1990_918)">
<path d="M17.8492 37.2722C17.8492 36.3194 18.6247 35.5443 19.5836 35.5443C20.5399 35.5443 21.3179 36.3169 21.3179 37.2697C21.3179 38.2249 20.5424 39 19.586 39C18.6272 39 17.8492 38.2274 17.8492 37.2722ZM9.79673 36.3959C8.96671 35.9195 8.68426 34.863 9.16245 34.0361C9.64064 33.2092 10.7011 32.9279 11.5311 33.4042C12.3611 33.8806 12.6461 34.9371 12.1654 35.764C11.8458 36.3194 11.2635 36.6279 10.6639 36.6279C10.3691 36.6279 10.0693 36.5539 9.79673 36.3959ZM26.9992 35.7566C26.5186 34.9297 26.801 33.8732 27.6311 33.3944C28.4586 32.918 29.5215 33.1994 30.0022 34.0238C30.4804 34.8507 30.1979 35.9072 29.3679 36.386C29.0954 36.544 28.7956 36.618 28.5007 36.618C27.9036 36.618 27.3213 36.3095 26.9992 35.7566ZM2.62882 29.2673C2.14815 28.4429 2.4306 27.3864 3.26062 26.9075C4.08817 26.4287 5.14861 26.7101 5.63176 27.5345C6.10995 28.3589 5.8275 29.4179 4.99995 29.8967C4.72741 30.0547 4.42761 30.1287 4.13277 30.1287C3.53317 30.1287 2.95091 29.8202 2.62882 29.2673ZM34.1597 29.8794C33.3297 29.403 33.0448 28.3466 33.5254 27.5197C34.0061 26.6928 35.0666 26.4114 35.8941 26.8903C36.7241 27.3667 37.0091 28.4231 36.5284 29.25C36.2063 29.8029 35.624 30.1115 35.0244 30.1115C34.7296 30.1115 34.4323 30.0374 34.1597 29.8794ZM0 19.5222C0 18.5694 0.775513 17.7944 1.7319 17.7919C2.69076 17.7919 3.46875 18.5645 3.46875 19.5198C3.46875 20.4725 2.69323 21.2476 1.73685 21.2476C0.777991 21.2501 0 20.4775 0 19.5222ZM35.6786 19.5C35.6786 19.4877 35.6786 19.4753 35.6786 19.463C35.6761 18.5077 36.4516 17.7327 37.408 17.7302C38.3668 17.7302 39.1448 18.5003 39.1473 19.4556C39.1473 19.463 39.1473 19.4704 39.1473 19.4803C39.1473 19.4852 39.1473 19.4926 39.1473 19.5C39.1473 20.4528 38.3718 21.2279 37.4129 21.2279C36.4565 21.2279 35.6786 20.4553 35.6786 19.5ZM3.24328 12.1295C2.41326 11.6531 2.12832 10.5967 2.60652 9.76975C3.08719 8.94285 4.14763 8.65899 4.97765 9.13538C5.8052 9.61425 6.09013 10.6707 5.61194 11.4951C5.28984 12.0505 4.70759 12.3615 4.10799 12.3615C3.81314 12.3615 3.51582 12.2875 3.24328 12.1295ZM33.5081 11.4482C33.025 10.6238 33.3074 9.56735 34.135 9.08602C34.9625 8.60716 36.0254 8.88608 36.5061 9.71298C36.9868 10.5374 36.7068 11.5939 35.8792 12.0752C35.6042 12.2332 35.3044 12.3097 35.0071 12.3097C34.41 12.3097 33.8302 12.0011 33.5081 11.4482ZM9.13024 4.98608C8.64957 4.16165 8.92955 3.1052 9.75957 2.62634C10.5871 2.14501 11.6476 2.4264 12.1282 3.25083C12.6114 4.07773 12.3289 5.13418 11.5014 5.61304C11.2264 5.77349 10.9266 5.84754 10.6317 5.84754C10.0321 5.84754 9.45234 5.53899 9.13024 4.98608ZM27.5988 5.58589C26.7688 5.1095 26.4839 4.05304 26.9621 3.22615C27.4403 2.39925 28.5007 2.11539 29.3307 2.59178C30.1608 3.06817 30.4457 4.12463 29.9675 4.95152C29.6479 5.5069 29.0632 5.81792 28.4636 5.81792C28.1687 5.81792 27.8714 5.74387 27.5988 5.58589ZM17.8095 1.73032C17.8071 0.777538 18.5826 0.00247425 19.539 5.89814e-06C20.4978 -0.00246246 21.2758 0.770132 21.2758 1.72539C21.2783 2.67817 20.5028 3.45323 19.5464 3.4557C19.5439 3.4557 19.5439 3.4557 19.5439 3.4557C18.5875 3.4557 17.8095 2.68311 17.8095 1.73032Z" fill="black"/>
<path d="M17.8493 29.3758C17.8493 28.4206 18.6248 27.6455 19.5812 27.6455C20.5401 27.6431 21.3181 28.4157 21.3181 29.3709C21.3206 30.3262 20.5426 31.0988 19.5862 31.1012C18.6273 31.1012 17.8518 30.3286 17.8493 29.3758ZM11.3529 27.7171C10.674 27.0432 10.6715 25.9473 11.3479 25.2734C12.0243 24.5971 13.1219 24.5946 13.8008 25.2685C14.4797 25.9424 14.4822 27.0358 13.8058 27.7122C13.4663 28.0503 13.0203 28.2207 12.5768 28.2207C12.1333 28.2207 11.6898 28.0528 11.3529 27.7171ZM25.3592 27.6998C24.6828 27.026 24.6803 25.9325 25.3592 25.2562C26.0356 24.5823 27.1332 24.5823 27.8121 25.2562C28.4885 25.93 28.4885 27.0235 27.8121 27.6998C27.4726 28.0355 27.0291 28.2058 26.5856 28.2058C26.1421 28.2058 25.6986 28.038 25.3592 27.6998ZM7.92872 19.5246C7.92624 18.5694 8.70175 17.7943 9.66061 17.7919C10.617 17.7919 11.395 18.562 11.3975 19.5172C11.3999 20.47 10.6244 21.2451 9.66557 21.2476H9.66309C8.70671 21.2476 7.93119 20.4774 7.92872 19.5246ZM27.7501 19.5C27.7501 19.4876 27.7501 19.4777 27.7501 19.4654C27.7452 18.5126 28.5182 17.7351 29.4771 17.7301C30.4359 17.7277 31.2139 18.4978 31.2189 19.4531C31.2189 19.4605 31.2189 19.4703 31.2189 19.4802C31.2189 19.4876 31.2189 19.4925 31.2189 19.5C31.2189 20.4552 30.4409 21.2278 29.4845 21.2278C28.5256 21.2278 27.7501 20.4552 27.7501 19.5ZM11.3256 13.761C10.6443 13.0896 10.6418 11.9937 11.3182 11.3174C11.9946 10.641 13.0922 10.6386 13.7711 11.3124C14.45 11.9838 14.4524 13.0773 13.776 13.7561C13.4391 14.0943 12.9931 14.2646 12.5471 14.2646C12.1061 14.2646 11.6626 14.0967 11.3256 13.761ZM25.3344 13.7191C24.653 13.0477 24.6506 11.9517 25.3245 11.2754C26.0009 10.5991 27.0985 10.5941 27.7774 11.268C28.4588 11.9394 28.4612 13.0329 27.7873 13.7092C27.4479 14.0498 27.0019 14.2201 26.5559 14.2201C26.1149 14.2201 25.6714 14.0548 25.3344 13.7191ZM17.8097 9.63147C17.8047 8.67622 18.5803 7.90116 19.5366 7.89869C20.4955 7.89622 21.2735 8.66635 21.276 9.6216C21.2809 10.5744 20.5054 11.3519 19.549 11.3544C19.5465 11.3544 19.5441 11.3544 19.5441 11.3544C18.5877 11.3544 17.8122 10.5843 17.8097 9.63147Z" fill="black"/>
<path d="M70.403 9.2464H65.1157C64.8605 9.2464 64.6474 9.32786 64.4764 9.49077C64.303 9.65368 64.2188 9.85361 64.2188 10.0881V27.5468C64.2188 27.7837 64.3055 27.9812 64.4764 28.1441C64.6499 28.307 64.8629 28.3885 65.1157 28.3885H70.403C73.4382 28.3885 75.7846 27.5616 77.4471 25.9053C79.1096 24.2491 79.9421 21.8819 79.9421 18.8039C79.9421 15.7258 79.1096 13.3636 77.4471 11.7172C75.7846 10.0708 73.4382 9.2464 70.403 9.2464ZM70.3213 26.9223H65.906V10.7126H70.3213C75.5541 10.7126 78.1706 13.4105 78.1706 18.8039C78.1706 24.217 75.5541 26.9223 70.3213 26.9223Z" fill="black"/>
<path d="M102.754 10.6854C102.989 10.6854 103.175 10.6213 103.311 10.4954C103.447 10.3695 103.514 10.1967 103.514 9.9795C103.514 9.74501 103.447 9.56235 103.311 9.43646C103.175 9.31058 102.989 9.2464 102.754 9.2464H92.3969C92.1417 9.2464 91.9286 9.32786 91.7577 9.49077C91.5842 9.65368 91.5 9.85361 91.5 10.0881V27.5468C91.5 27.7837 91.5867 27.9812 91.7577 28.1441C91.9311 28.307 92.1442 28.3885 92.3969 28.3885H102.754C102.989 28.3885 103.175 28.3243 103.311 28.1984C103.447 28.0725 103.514 27.8899 103.514 27.6554C103.514 27.4209 103.447 27.2432 103.311 27.1247C103.175 27.0062 102.989 26.9494 102.754 26.9494H93.16V19.4012H102.209C102.444 19.4012 102.632 19.337 102.766 19.2111C102.902 19.0853 102.972 18.9026 102.972 18.6681C102.972 18.4336 102.902 18.251 102.766 18.1251C102.63 17.9992 102.444 17.935 102.209 17.935H93.16V10.6854H102.754Z" fill="black"/>
<path d="M131.698 9.11066C131.371 9.11066 131.098 9.318 130.88 9.73515L123.658 23.7455L116.326 9.73515C116.108 9.318 115.836 9.11066 115.509 9.11066C115.236 9.11066 115.023 9.19211 114.87 9.35502C114.716 9.51794 114.637 9.72528 114.637 9.97952V27.6554C114.637 27.9269 114.706 28.1392 114.842 28.2922C114.979 28.4453 115.184 28.5243 115.454 28.5243C115.71 28.5243 115.9 28.4477 116.027 28.2922C116.153 28.1392 116.217 27.9269 116.217 27.6554V12.6947L122.731 25.0217C122.949 25.4388 123.249 25.6462 123.631 25.6462C124.012 25.6462 124.312 25.4388 124.53 25.0217L130.989 12.5861V27.6554C130.989 27.9269 131.054 28.1392 131.18 28.2922C131.307 28.4453 131.497 28.5243 131.753 28.5243C132.008 28.5243 132.206 28.4428 132.352 28.2799C132.498 28.117 132.57 27.9096 132.57 27.6554V9.97952C132.57 9.72528 132.493 9.51794 132.34 9.35502C132.184 9.19211 131.971 9.11066 131.698 9.11066Z" fill="black"/>
<path d="M153.147 9.68078C153.076 9.50059 152.952 9.35495 152.781 9.24635C152.607 9.13774 152.421 9.08344 152.221 9.08344C151.785 9.08344 151.485 9.28337 151.321 9.68078L143.363 27.4924C143.326 27.564 143.309 27.6652 143.309 27.7911C143.309 28.0083 143.385 28.186 143.541 28.3218C143.695 28.4575 143.883 28.5267 144.099 28.5267C144.443 28.5267 144.699 28.3539 144.862 28.0108L146.961 23.2863H157.535L159.607 28.0108C159.679 28.1737 159.783 28.2996 159.919 28.3909C160.055 28.4822 160.196 28.5267 160.343 28.5267C160.561 28.5267 160.751 28.4575 160.915 28.3218C161.078 28.186 161.16 28.0182 161.16 27.8182C161.16 27.7096 161.133 27.601 161.078 27.4924L153.147 9.68078ZM147.588 21.8177L152.248 11.3099L156.881 21.8177H147.588Z" fill="black"/>
<path d="M186.152 9.11066C185.917 9.11066 185.726 9.19211 185.58 9.35502C185.434 9.51794 185.362 9.72528 185.362 9.97952V25.5376L173.452 9.51794C173.271 9.24642 173.033 9.11066 172.743 9.11066C172.471 9.11066 172.258 9.19211 172.104 9.35502C171.95 9.51794 171.871 9.72528 171.871 9.97952V27.6554C171.871 27.9269 171.936 28.1392 172.062 28.2922C172.188 28.4453 172.389 28.5243 172.661 28.5243C172.897 28.5243 173.088 28.4428 173.234 28.2799C173.38 28.117 173.452 27.9096 173.452 27.6554V12.0702L185.389 28.117C185.607 28.3885 185.853 28.5243 186.125 28.5243C186.38 28.5243 186.579 28.4428 186.725 28.2799C186.871 28.117 186.943 27.9096 186.943 27.6554V9.97952C186.943 9.708 186.876 9.49572 186.737 9.34268C186.601 9.18718 186.405 9.11066 186.152 9.11066Z" fill="black"/>
<path d="M205.446 9.2464H200.159C199.903 9.2464 199.69 9.32786 199.519 9.49077C199.346 9.65368 199.262 9.85361 199.262 10.0881V27.5468C199.262 27.7837 199.348 27.9812 199.519 28.1441C199.693 28.307 199.906 28.3885 200.159 28.3885H205.446C208.481 28.3885 210.827 27.5616 212.49 25.9053C214.153 24.2491 214.985 21.8819 214.985 18.8039C214.985 15.7258 214.153 13.3636 212.49 11.7172C210.83 10.0708 208.481 9.2464 205.446 9.2464ZM205.364 26.9223H200.949V10.7126H205.364C210.597 10.7126 213.213 13.4105 213.213 18.8039C213.213 24.217 210.597 26.9223 205.364 26.9223Z" fill="black"/>
<path d="M227.877 9.11066C227.349 9.11066 226.928 9.26863 226.609 9.58705C226.291 9.903 226.133 10.3251 226.133 10.8484V26.7865C226.133 27.3123 226.291 27.7369 226.609 28.0627C226.926 28.3885 227.349 28.5514 227.877 28.5514C228.422 28.5514 228.853 28.3885 229.17 28.0627C229.488 27.7369 229.646 27.3123 229.646 26.7865V10.8484C229.646 10.3226 229.488 9.903 229.17 9.58705C228.853 9.26863 228.422 9.11066 227.877 9.11066Z" fill="#15ABE6"/>
<path d="M259.509 25.5919C259.182 25.2759 258.756 25.118 258.228 25.118H257.066C257.307 24.7749 257.525 24.4095 257.723 24.0171C258.469 22.5336 258.84 20.7959 258.84 18.8039C258.84 16.812 258.471 15.0792 257.735 13.6056C256.999 12.1295 255.946 10.994 254.574 10.1968C253.201 9.39948 251.581 9.00208 249.71 9.00208C247.84 9.00208 246.212 9.39948 244.832 10.1968C243.452 10.994 242.394 12.1295 241.655 13.6056C240.919 15.0816 240.553 16.8144 240.553 18.8039C240.553 20.7959 240.924 22.5336 241.67 24.0171C242.416 25.5006 243.474 26.6409 244.844 27.4382C246.217 28.2355 247.837 28.6329 249.71 28.6329C249.871 28.6329 250.027 28.6255 250.186 28.6206H258.231C258.759 28.6206 259.185 28.4626 259.512 28.1442C259.839 27.8282 260.002 27.4061 260.002 26.8828C260 26.3398 259.836 25.9078 259.509 25.5919ZM245.553 24.0171C244.562 22.8051 244.066 21.0674 244.066 18.8039C244.066 16.5404 244.562 14.8076 245.553 13.6056C246.544 12.401 247.929 11.8012 249.71 11.8012C251.472 11.8012 252.849 12.4035 253.84 13.6056C254.832 14.8101 255.325 16.5429 255.325 18.8039C255.325 21.0674 254.829 22.8051 253.84 24.0171C252.849 25.229 251.474 25.8363 249.71 25.8363C247.926 25.8363 246.541 25.229 245.553 24.0171Z" fill="#15ABE6"/>
</g>
<defs>
<clipPath id="clip0_1990_918">
<rect width="260" height="39" fill="white"/>
</clipPath>
</defs>
</svg>
